<svg xmlns:xlink="http://www.w3.org/1999/xlink" xmlns="http://www.w3.org/2000/svg" width="147" height="186" viewBox="0 0 147 186" fill="none">
<path d="M145.541 37.0294C143.331 44.7147 139.026 52.0507 132.861 58.8045C127.393 64.7432 120.529 70.0996 112.618 74.5245C106.219 78.1343 98.3083 81.1619 91.2117 83.3743C91.2117 77.6685 93.6548 66.0241 96.7959 62.6472C96.9122 62.5307 96.9122 62.5307 97.0286 62.4143C99.7043 61.017 101.1 59.969 103.66 58.5716C116.573 51.3521 125.182 41.8036 128.207 31.7894C129.37 27.9467 128.905 24.4534 127.044 21.8916C125.299 19.5627 122.506 18.1654 119.365 18.1654H119.133C114.945 18.1654 111.222 19.6791 107.615 22.7067C104.009 25.8507 100.635 30.6249 97.6102 36.9129C94.0038 44.3654 90.8627 54.0303 88.5359 65.3254L84.9295 85.3539C84.8131 85.7032 84.8131 86.0526 84.6968 86.4019L84.4641 87.4499C83.9988 89.7788 83.6498 92.2241 83.1844 94.7859C93.5384 93.7379 100.751 93.8543 101.333 93.8543C106.336 93.9708 110.407 98.0463 110.291 103.17C110.175 108.177 106.103 112.136 101.217 112.136H101.1C100.751 112.136 91.7934 112.02 79.8106 113.65H79.6943C74.9244 114.232 60.2659 117.493 60.2659 117.493C49.9119 120.287 41.3029 124.013 34.6717 128.671C26.4117 134.377 21.2928 141.131 19.0824 149.282C17.6864 154.522 18.3844 159.646 21.0602 163.139C21.9909 164.42 23.1542 165.351 24.5503 166.05C25.9463 166.749 27.4587 166.982 29.2038 166.982C29.2038 166.982 30.4835 166.982 31.7632 166.749C37.8128 165.701 44.095 157.2 44.095 157.2C47.2361 153.008 49.2138 149.166 50.9589 145.206C53.1693 140.199 55.9614 133.213 58.2882 124.363C58.5208 124.246 58.6372 124.13 58.8699 124.13C62.011 122.616 65.9665 121.219 69.2239 120.637C72.714 119.938 76.5532 119.938 78.1819 120.637C72.2487 144.391 64.9194 161.043 55.8451 171.639C48.1668 180.606 39.2088 185.263 29.0874 185.263C19.8968 185.263 11.8695 181.304 6.40163 174.318C3.37685 170.358 1.28278 165.584 0.468416 160.344C-0.345946 155.221 -0.113275 149.864 1.28278 144.624C4.65656 132.165 12.3348 121.685 24.3176 113.533C33.2756 107.362 44.5603 102.588 57.9392 99.2108C60.0332 98.745 62.011 98.2792 63.9887 97.8135C64.5704 94.553 65.1521 91.1761 65.7338 87.9157C64.9194 87.9157 64.2214 87.9157 63.407 87.9157C41.3029 87.9157 29.6691 82.2099 27.6914 81.1619L27.226 80.929C22.8052 78.6001 21.0602 73.1272 23.3869 68.5859C25.7137 64.161 31.1815 62.4143 35.7187 64.7432L36.3004 65.0925C36.4167 65.209 36.4167 65.209 36.533 65.209C37.3474 65.5583 46.0727 69.7503 63.407 69.7503C65.1521 69.7503 67.0135 69.6339 68.8749 69.5174C71.667 53.4481 75.7388 39.8241 80.8577 29.1111C84.9295 20.6107 89.8156 13.8569 95.2835 9.08267C102.147 3.02755 110.058 0 118.667 0C118.784 0 119.016 0 119.133 0C127.974 0.116445 136.118 4.192 141.237 11.1787C146.821 18.2818 148.333 27.7138 145.541 37.0294Z" fill="#B9FA00"/>
</svg>